<svg xmlns="http://www.w3.org/2000/svg"  viewBox="0 0 26 26" width="208px" height="208px"><path d="M 12 0.1875 C 11.640625 0.1875 11.3125 0.269531 11 0.4375 C 10.6875 0.605469 10.429688 0.890625 10.3125 1.1875 C 10.101563 1.714844 10.167969 2.191406 10.21875 2.6875 C 7.460938 3.449219 5.3125 5.445313 4.25 8.03125 C 3.445313 8.125 2.804688 8.652344 2.53125 9.25 C 2.230469 9.90625 2.1875 10.589844 2.1875 11.1875 L 2.1875 13.5 C 2.1875 13.925781 2.253906 14.363281 2.53125 14.75 C 2.808594 15.136719 3.242188 15.304688 3.65625 15.375 C 3.871094 15.410156 4.003906 15.472656 4.0625 15.53125 C 4.121094 15.589844 4.1875 15.6875 4.1875 16.09375 L 4.21875 16.09375 C 4.117188 17.210938 3.984375 18.902344 3.875 20.40625 C 3.820313 21.167969 3.765625 21.851563 3.71875 22.40625 C 3.671875 22.960938 3.632813 23.421875 3.625 23.46875 L 3.59375 23.53125 L 3.59375 23.59375 C 3.59375 23.84375 3.570313 24.085938 3.6875 24.4375 C 3.800781 24.777344 4.191406 25.140625 4.5625 25.25 C 4.578125 25.253906 4.582031 25.277344 4.59375 25.28125 C 4.851563 25.367188 5.316406 25.542969 5.65625 25.65625 L 5.6875 25.65625 L 5.71875 25.6875 C 6.308594 25.835938 7 25.6875 7.4375 25.25 C 7.625 25.0625 7.765625 24.863281 7.875 24.625 C 9.132813 24.847656 10.808594 25 13 25 C 15.210938 25 16.894531 24.855469 18.15625 24.6875 C 18.261719 24.898438 18.394531 25.082031 18.5625 25.25 C 19 25.6875 19.691406 25.835938 20.28125 25.6875 L 20.3125 25.65625 L 20.34375 25.65625 C 20.683594 25.542969 21.148438 25.367188 21.40625 25.28125 C 21.417969 25.277344 21.421875 25.253906 21.4375 25.25 C 21.808594 25.140625 22.199219 24.777344 22.3125 24.4375 C 22.429688 24.085938 22.40625 23.84375 22.40625 23.59375 L 22.40625 23.53125 L 22.375 23.46875 C 22.367188 23.421875 22.328125 22.960938 22.28125 22.40625 C 22.234375 21.851563 22.179688 21.167969 22.125 20.40625 C 22.015625 18.902344 21.882813 17.210938 21.78125 16.09375 L 21.8125 16.09375 C 21.8125 15.6875 21.878906 15.589844 21.9375 15.53125 C 21.996094 15.472656 22.128906 15.410156 22.34375 15.375 C 22.757813 15.304688 23.191406 15.136719 23.46875 14.75 C 23.746094 14.363281 23.8125 13.925781 23.8125 13.5 L 23.8125 11.1875 C 23.8125 10.589844 23.769531 9.890625 23.46875 9.21875 C 23.320313 8.882813 23.074219 8.550781 22.71875 8.3125 C 22.441406 8.128906 22.105469 8.023438 21.75 8 C 20.683594 5.425781 18.53125 3.445313 15.78125 2.6875 C 15.832031 2.191406 15.898438 1.714844 15.6875 1.1875 C 15.570313 0.890625 15.3125 0.605469 15 0.4375 C 14.6875 0.269531 14.359375 0.1875 14 0.1875 Z M 12 1.8125 L 14 1.8125 C 14.167969 1.8125 14.207031 1.839844 14.21875 1.84375 C 14.234375 1.914063 14.265625 2.21875 14.21875 2.71875 L 14.1875 2.75 C 14.085938 4.25 14.09375 4.960938 14.09375 5.65625 L 14.09375 5.6875 C 14.042969 6.671875 13.945313 7.558594 14.25 8.40625 C 14.40625 8.835938 14.738281 9.253906 15.1875 9.5 C 15.625 9.742188 16.140625 9.835938 16.71875 9.8125 C 16.730469 9.8125 16.738281 9.8125 16.75 9.8125 C 19.386719 9.714844 20.664063 9.703125 21.5625 9.59375 C 21.582031 9.59375 21.578125 9.59375 21.59375 9.59375 C 21.730469 9.589844 21.800781 9.628906 21.84375 9.65625 C 21.890625 9.6875 21.9375 9.734375 22 9.875 C 22.125 10.152344 22.1875 10.6875 22.1875 11.1875 L 22.1875 13.5 C 22.1875 13.746094 22.171875 13.792969 22.1875 13.78125 C 22.167969 13.785156 22.136719 13.800781 22.0625 13.8125 L 22.03125 13.8125 C 21.648438 13.878906 21.195313 14.023438 20.8125 14.40625 C 20.417969 14.800781 20.1875 15.398438 20.1875 16.09375 L 20.1875 16.125 L 20.21875 16.1875 C 20.316406 17.273438 20.417969 18.972656 20.53125 20.5 C 20.585938 21.261719 20.640625 22 20.6875 22.5625 C 20.726563 23.066406 20.777344 23.34375 20.8125 23.59375 C 20.816406 23.625 20.808594 23.691406 20.8125 23.71875 C 20.808594 23.765625 20.78125 23.789063 20.78125 23.8125 C 20.472656 23.921875 20.128906 24.046875 19.90625 24.125 C 19.695313 24.175781 19.75 24.15625 19.6875 24.09375 C 19.628906 24.035156 19.492188 23.777344 19.40625 23.3125 L 19.375 23.28125 C 19.277344 22.6875 19.054688 21.28125 18.84375 19.96875 C 18.632813 18.65625 18.441406 17.496094 18.375 17.15625 C 18.304688 16.734375 18.152344 16.246094 17.75 15.84375 C 17.347656 15.441406 16.71875 15.1875 16 15.1875 L 10 15.1875 C 9.28125 15.1875 8.652344 15.441406 8.25 15.84375 C 7.847656 16.246094 7.695313 16.734375 7.625 17.15625 C 7.558594 17.496094 7.367188 18.65625 7.15625 19.96875 C 6.972656 21.097656 6.800781 22.121094 6.6875 22.8125 L 6.625 23.28125 C 6.539063 23.792969 6.375 24.03125 6.3125 24.09375 C 6.25 24.15625 6.304688 24.175781 6.09375 24.125 C 5.871094 24.046875 5.527344 23.921875 5.21875 23.8125 C 5.21875 23.789063 5.191406 23.765625 5.1875 23.71875 C 5.191406 23.707031 5.183594 23.671875 5.1875 23.65625 C 5.1875 23.617188 5.1875 23.640625 5.1875 23.59375 C 5.222656 23.34375 5.273438 23.066406 5.3125 22.5625 C 5.359375 22 5.414063 21.261719 5.46875 20.5 C 5.582031 18.972656 5.683594 17.273438 5.78125 16.1875 L 5.8125 16.125 L 5.8125 16.09375 C 5.8125 15.398438 5.582031 14.800781 5.1875 14.40625 C 4.792969 14.011719 4.324219 13.875 3.9375 13.8125 C 3.863281 13.800781 3.832031 13.785156 3.8125 13.78125 C 3.828125 13.792969 3.8125 13.746094 3.8125 13.5 L 3.8125 11.1875 C 3.8125 10.6875 3.878906 10.171875 4 9.90625 C 4.121094 9.640625 4.117188 9.59375 4.5 9.59375 C 5.398438 9.699219 6.644531 9.714844 9.25 9.8125 C 9.261719 9.8125 9.269531 9.8125 9.28125 9.8125 C 9.859375 9.835938 10.375 9.742188 10.8125 9.5 C 11.261719 9.253906 11.59375 8.835938 11.75 8.40625 C 12.054688 7.558594 11.957031 6.671875 11.90625 5.6875 C 11.90625 5.675781 11.90625 5.667969 11.90625 5.65625 C 11.90625 4.960938 11.914063 4.25 11.8125 2.75 L 11.78125 2.71875 C 11.734375 2.21875 11.765625 1.914063 11.78125 1.84375 C 11.792969 1.839844 11.832031 1.8125 12 1.8125 Z M 10.28125 4.3125 C 10.308594 4.847656 10.3125 5.285156 10.3125 5.6875 L 10.3125 5.75 C 10.363281 6.753906 10.363281 7.558594 10.25 7.875 C 10.191406 8.035156 10.15625 8.042969 10.0625 8.09375 C 9.96875 8.144531 9.75 8.207031 9.34375 8.1875 C 7.78125 8.128906 6.761719 8.121094 5.96875 8.09375 C 6.851563 6.328125 8.382813 4.945313 10.28125 4.3125 Z M 15.71875 4.3125 C 17.617188 4.945313 19.148438 6.328125 20.03125 8.09375 C 19.238281 8.121094 18.21875 8.128906 16.65625 8.1875 C 16.25 8.207031 16.03125 8.144531 15.9375 8.09375 C 15.84375 8.042969 15.808594 8.035156 15.75 7.875 C 15.636719 7.558594 15.636719 6.753906 15.6875 5.75 L 15.6875 5.6875 C 15.6875 5.285156 15.691406 4.847656 15.71875 4.3125 Z M 13 10.59375 C 10.699219 10.59375 7.886719 10.898438 7.1875 11 C 6.488281 11.101563 6.1875 11.195313 6.1875 11.59375 C 6.1875 12.09375 6.09375 12.507813 6.09375 12.90625 C 6.09375 13.207031 6.195313 13.40625 6.59375 13.40625 C 7.492188 13.304688 8.511719 13.1875 8.8125 13.1875 C 9.011719 13.1875 9.207031 13.207031 9.40625 13.40625 C 9.605469 13.605469 9.992188 14 10.09375 14 L 15.90625 14 C 16.007813 14 16.394531 13.605469 16.59375 13.40625 C 16.695313 13.304688 16.886719 13.1875 17.1875 13.1875 C 17.488281 13.1875 18.507813 13.304688 19.40625 13.40625 C 19.804688 13.40625 19.90625 13.207031 19.90625 12.90625 C 19.90625 12.507813 19.8125 12.195313 19.8125 11.59375 C 19.8125 11.195313 19.414063 11.101563 18.8125 11 C 18.113281 10.898438 15.300781 10.59375 13 10.59375 Z"/></svg>